<svg id="icon-account" xmlns="http://www.w3.org/2000/svg" viewBox="0 0 40 40"><style>.st0{fill:#ced0d6}.st1{fill:#fff}.st2{fill:#d7d9db}</style><path class="st0" d="M35 6H25v2H15V6H5C3.3 6 2 7.4 2 9v22c0 1.7 1.3 3 3 3h30c1.7 0 3-1.3 3-3V9c0-1.6-1.3-3-3-3z"/><path class="st1" d="M5 8h30c.6 0 1 .4 1 1v22c0 .6-.4 1-1 1H5c-.6 0-1-.4-1-1V9c0-.5.4-1 1-1z"/><circle class="st0" cx="15" cy="7" r="1"/><circle class="st0" cx="25" cy="7" r="1"/><path class="st0" d="M18.5 9.2c0 .4.4.7.8.8h1.4c.4 0 .8-.3.8-.8l.1-.6.1-1.1.3-2.6c0-.2 0-.5-.2-.7-.1-.1-.3-.2-.6-.2h-2.4c-.2 0-.5.1-.6.3-.1.2-.2.4-.2.6l.5 4.3z"/><path id="account-2" class="st2" d="M12.3 16.9c0 .3 0 .6.1.9-.2.1-.3.3-.3.5 0 .3.2.5.5.5-.1 1.3.8 2.5 2.1 2.6s2.5-.8 2.6-2.1v-.5c.3 0 .5-.2.5-.5 0-.2-.1-.4-.3-.5.1-.3.1-.6.1-.9.1-1.5-1-2.8-2.5-2.9-1.5-.1-2.8 1-2.9 2.5.1.2.1.3.1.4zm4.6 5.5h-.2c-1 .5-2.3.5-3.3 0h-.2-.1c-1.5.4-2.9 1.1-4 2.2 0 0-.1.1-.1.2v.9c0 .2.1.3.3.3h11.5c.1 0 .2-.1.2-.3v-.9c0-.1 0-.1-.1-.2-1.1-1.1-2.4-1.8-3.9-2.2h-.1zM23 18h8c.6 0 1 .4 1 1s-.4 1-1 1h-8c-.6 0-1-.4-1-1s.4-1 1-1zm0 4h8c.6 0 1 .4 1 1s-.4 1-1 1h-8c-.6 0-1-.4-1-1s.4-1 1-1z"/></svg>