<svg id="icon-finance" xmlns="http://www.w3.org/2000/svg" viewBox="0 0 40 40"><style>.st0{fill:#ced0d6}.st1{fill:#fff}.st2{fill:#e6bba5}.st3{fill:#f0f2f5}</style><path id="round2" class="st0" d="M20 2c8.8 0 16 7.2 16 16s-7.2 16-16 16S4 26.8 4 18 11.1 2 20 2zm0 2c7.7 0 14 6.3 14 14s-6.3 14-14 14S6 25.7 6 18 12.2 4 20 4z"/><circle id="round1" class="st1" cx="20" cy="18" r="14"/><path class="st2" d="M16 18h3v2h-3v2h3v2h2v-2h3v-2h-3v-2h3v-2h-3l4-5h-2.6L20 14.2 17.6 11H15l4 5h-3z"/><circle class="st2" cx="16" cy="17" r="1"/><circle class="st2" cx="16" cy="21" r="1"/><circle class="st2" cx="24" cy="21" r="1"/><circle class="st2" cx="24" cy="17" r="1"/><g id="hand"><path id="shape" class="st0" d="M23 30c-.6-.8-1.9-3-.6-4.7.7-.9 1.9-1.2 2.9-.8 1 .3 1.9.7 2.8 1.2 2.7 1.6 5.6 2.7 8.6 3.5.8.1 1.4.8 1.4 1.7v5.6c.1.8-.4 1.5-1.1 1.6H18.1c-5.2 0-10.8-2.6-15-10-.8-1.5-1.1-3.3-.8-5 .2-1.4 1.5-2.4 3-2.2.4.1.7.2 1.1.4 1.7 1 6.1 8.8 14.8 8.8L23 30zM4.9 22.9c.2 0 .3.1.5.1.4.4.9.8 1.3 1.3C9 27 13.6 32 21 32h6.1l-2.5-3.2c-.2-.3-1.1-1.6-.6-2.3.1-.1.2-.2.3-.1.1 0 .3 0 .4.1.8.2 1.6.6 2.3 1 2.8 1.6 5.8 2.8 8.9 3.6V36H18c-5.3 0-9.8-3.1-13.2-8.8-.6-1.1-.8-2.3-.6-3.5.1-.4.3-.7.7-.8"/><path id="color" class="st3" d="M4.9 22.9c.2 0 .3.1.5.1.4.4.9.8 1.3 1.3C9 27 13.6 32 21 32h6.1l-2.5-3.2c-.2-.3-1.1-1.6-.6-2.3.1-.1.2-.2.3-.1.1 0 .3 0 .4.1.8.2 1.6.6 2.3 1 2.8 1.6 5.8 2.8 8.9 3.6V36H18c-5.3 0-9.8-3.1-13.2-8.8-.6-1.1-.8-2.3-.6-3.5.1-.4.3-.7.7-.8"/></g></svg>